<mxfile host="app.diagrams.net" modified="2022-05-07T12:11:19.819Z" agent="5.0 (Macintosh; Intel Mac OS X 10_15_7) AppleWebKit/537.36 (KHTML, like Gecko) Chrome/101.0.4951.54 Safari/537.36" etag="0Wp02OkA3lKgTbtNWUhP" version="17.4.6" type="github">
  <diagram id="C5RBs43oDa-KdzZeNtuy" name="Page-1">
    <mxGraphModel dx="4514" dy="1780" grid="1" gridSize="10" guides="1" tooltips="1" connect="1" arrows="1" fold="1" page="1" pageScale="1" pageWidth="827" pageHeight="1169" math="0" shadow="0">
      <root>
        <mxCell id="WIyWlLk6GJQsqaUBKTNV-0" />
        <mxCell id="WIyWlLk6GJQsqaUBKTNV-1" parent="WIyWlLk6GJQsqaUBKTNV-0" />
        <mxCell id="3XEaH6fvo4PT5U0Qq_-e-0" value="Questions" style="swimlane;fontStyle=0;childLayout=stackLayout;horizontal=1;startSize=26;fillColor=none;horizontalStack=0;resizeParent=1;resizeParentMax=0;resizeLast=0;collapsible=1;marginBottom=0;" vertex="1" parent="WIyWlLk6GJQsqaUBKTNV-1">
          <mxGeometry x="-61" y="40" width="210" height="182" as="geometry" />
        </mxCell>
        <mxCell id="3XEaH6fvo4PT5U0Qq_-e-1" value="+ questions: array" style="text;strokeColor=none;fillColor=none;align=left;verticalAlign=top;spacingLeft=4;spacingRight=4;overflow=hidden;rotatable=0;points=[[0,0.5],[1,0.5]];portConstraint=eastwest;" vertex="1" parent="3XEaH6fvo4PT5U0Qq_-e-0">
          <mxGeometry y="26" width="210" height="26" as="geometry" />
        </mxCell>
        <mxCell id="3XEaH6fvo4PT5U0Qq_-e-2" value="+ loading: boolean " style="text;strokeColor=none;fillColor=none;align=left;verticalAlign=top;spacingLeft=4;spacingRight=4;overflow=hidden;rotatable=0;points=[[0,0.5],[1,0.5]];portConstraint=eastwest;" vertex="1" parent="3XEaH6fvo4PT5U0Qq_-e-0">
          <mxGeometry y="52" width="210" height="26" as="geometry" />
        </mxCell>
        <mxCell id="3XEaH6fvo4PT5U0Qq_-e-3" value="+ useEffect: function" style="text;strokeColor=none;fillColor=none;align=left;verticalAlign=top;spacingLeft=4;spacingRight=4;overflow=hidden;rotatable=0;points=[[0,0.5],[1,0.5]];portConstraint=eastwest;" vertex="1" parent="3XEaH6fvo4PT5U0Qq_-e-0">
          <mxGeometry y="78" width="210" height="26" as="geometry" />
        </mxCell>
        <mxCell id="3XEaH6fvo4PT5U0Qq_-e-4" value="+ gestureDetected: function" style="text;strokeColor=none;fillColor=none;align=left;verticalAlign=top;spacingLeft=4;spacingRight=4;overflow=hidden;rotatable=0;points=[[0,0.5],[1,0.5]];portConstraint=eastwest;" vertex="1" parent="3XEaH6fvo4PT5U0Qq_-e-0">
          <mxGeometry y="104" width="210" height="26" as="geometry" />
        </mxCell>
        <mxCell id="3XEaH6fvo4PT5U0Qq_-e-110" value="+ animateGesture: Promise" style="text;strokeColor=none;fillColor=none;align=left;verticalAlign=top;spacingLeft=4;spacingRight=4;overflow=hidden;rotatable=0;points=[[0,0.5],[1,0.5]];portConstraint=eastwest;" vertex="1" parent="3XEaH6fvo4PT5U0Qq_-e-0">
          <mxGeometry y="130" width="210" height="26" as="geometry" />
        </mxCell>
        <mxCell id="3XEaH6fvo4PT5U0Qq_-e-5" value="+ TensorHandModel: Component" style="text;strokeColor=none;fillColor=none;align=left;verticalAlign=top;spacingLeft=4;spacingRight=4;overflow=hidden;rotatable=0;points=[[0,0.5],[1,0.5]];portConstraint=eastwest;" vertex="1" parent="3XEaH6fvo4PT5U0Qq_-e-0">
          <mxGeometry y="156" width="210" height="26" as="geometry" />
        </mxCell>
        <mxCell id="3XEaH6fvo4PT5U0Qq_-e-9" value="TensorHandModel" style="swimlane;fontStyle=0;childLayout=stackLayout;horizontal=1;startSize=26;fillColor=none;horizontalStack=0;resizeParent=1;resizeParentMax=0;resizeLast=0;collapsible=1;marginBottom=0;" vertex="1" parent="WIyWlLk6GJQsqaUBKTNV-1">
          <mxGeometry x="249" y="260" width="210" height="156" as="geometry" />
        </mxCell>
        <mxCell id="3XEaH6fvo4PT5U0Qq_-e-10" value="+ model: model " style="text;strokeColor=none;fillColor=none;align=left;verticalAlign=top;spacingLeft=4;spacingRight=4;overflow=hidden;rotatable=0;points=[[0,0.5],[1,0.5]];portConstraint=eastwest;" vertex="1" parent="3XEaH6fvo4PT5U0Qq_-e-9">
          <mxGeometry y="26" width="210" height="26" as="geometry" />
        </mxCell>
        <mxCell id="3XEaH6fvo4PT5U0Qq_-e-11" value="+ detectionModel: model" style="text;strokeColor=none;fillColor=none;align=left;verticalAlign=top;spacingLeft=4;spacingRight=4;overflow=hidden;rotatable=0;points=[[0,0.5],[1,0.5]];portConstraint=eastwest;" vertex="1" parent="3XEaH6fvo4PT5U0Qq_-e-9">
          <mxGeometry y="52" width="210" height="26" as="geometry" />
        </mxCell>
        <mxCell id="3XEaH6fvo4PT5U0Qq_-e-12" value="+ useEffect: function" style="text;strokeColor=none;fillColor=none;align=left;verticalAlign=top;spacingLeft=4;spacingRight=4;overflow=hidden;rotatable=0;points=[[0,0.5],[1,0.5]];portConstraint=eastwest;" vertex="1" parent="3XEaH6fvo4PT5U0Qq_-e-9">
          <mxGeometry y="78" width="210" height="26" as="geometry" />
        </mxCell>
        <mxCell id="3XEaH6fvo4PT5U0Qq_-e-15" value="+ checkThumb: function" style="text;strokeColor=none;fillColor=none;align=left;verticalAlign=top;spacingLeft=4;spacingRight=4;overflow=hidden;rotatable=0;points=[[0,0.5],[1,0.5]];portConstraint=eastwest;" vertex="1" parent="3XEaH6fvo4PT5U0Qq_-e-9">
          <mxGeometry y="104" width="210" height="26" as="geometry" />
        </mxCell>
        <mxCell id="3XEaH6fvo4PT5U0Qq_-e-13" value="+ handleCameraStream: function" style="text;strokeColor=none;fillColor=none;align=left;verticalAlign=top;spacingLeft=4;spacingRight=4;overflow=hidden;rotatable=0;points=[[0,0.5],[1,0.5]];portConstraint=eastwest;" vertex="1" parent="3XEaH6fvo4PT5U0Qq_-e-9">
          <mxGeometry y="130" width="210" height="26" as="geometry" />
        </mxCell>
        <mxCell id="3XEaH6fvo4PT5U0Qq_-e-16" style="edgeStyle=orthogonalEdgeStyle;rounded=0;orthogonalLoop=1;jettySize=auto;html=1;entryX=0.5;entryY=0;entryDx=0;entryDy=0;" edge="1" parent="WIyWlLk6GJQsqaUBKTNV-1" source="3XEaH6fvo4PT5U0Qq_-e-3" target="WIyWlLk6GJQsqaUBKTNV-3">
          <mxGeometry relative="1" as="geometry">
            <mxPoint x="29" y="330" as="targetPoint" />
          </mxGeometry>
        </mxCell>
        <mxCell id="3XEaH6fvo4PT5U0Qq_-e-18" style="edgeStyle=orthogonalEdgeStyle;rounded=0;orthogonalLoop=1;jettySize=auto;html=1;entryX=0.5;entryY=0;entryDx=0;entryDy=0;" edge="1" parent="WIyWlLk6GJQsqaUBKTNV-1" source="3XEaH6fvo4PT5U0Qq_-e-4" target="3XEaH6fvo4PT5U0Qq_-e-126">
          <mxGeometry relative="1" as="geometry">
            <mxPoint x="-352" y="240" as="targetPoint" />
            <Array as="points">
              <mxPoint x="-405" y="157" />
            </Array>
          </mxGeometry>
        </mxCell>
        <mxCell id="3XEaH6fvo4PT5U0Qq_-e-19" style="edgeStyle=orthogonalEdgeStyle;rounded=0;orthogonalLoop=1;jettySize=auto;html=1;entryX=0.5;entryY=0;entryDx=0;entryDy=0;" edge="1" parent="WIyWlLk6GJQsqaUBKTNV-1" source="3XEaH6fvo4PT5U0Qq_-e-5" target="3XEaH6fvo4PT5U0Qq_-e-9">
          <mxGeometry relative="1" as="geometry">
            <mxPoint x="389" y="70" as="targetPoint" />
            <Array as="points">
              <mxPoint x="354" y="209" />
            </Array>
          </mxGeometry>
        </mxCell>
        <mxCell id="3XEaH6fvo4PT5U0Qq_-e-38" style="edgeStyle=orthogonalEdgeStyle;rounded=0;orthogonalLoop=1;jettySize=auto;html=1;" edge="1" parent="WIyWlLk6GJQsqaUBKTNV-1" source="3XEaH6fvo4PT5U0Qq_-e-12" target="3XEaH6fvo4PT5U0Qq_-e-32">
          <mxGeometry relative="1" as="geometry">
            <mxPoint x="131.52631578947376" y="352" as="targetPoint" />
          </mxGeometry>
        </mxCell>
        <mxCell id="3XEaH6fvo4PT5U0Qq_-e-47" style="edgeStyle=orthogonalEdgeStyle;rounded=0;orthogonalLoop=1;jettySize=auto;html=1;entryX=0.5;entryY=0;entryDx=0;entryDy=0;" edge="1" parent="WIyWlLk6GJQsqaUBKTNV-1" source="3XEaH6fvo4PT5U0Qq_-e-15" target="3XEaH6fvo4PT5U0Qq_-e-41">
          <mxGeometry relative="1" as="geometry" />
        </mxCell>
        <mxCell id="3XEaH6fvo4PT5U0Qq_-e-105" style="edgeStyle=orthogonalEdgeStyle;rounded=0;orthogonalLoop=1;jettySize=auto;html=1;" edge="1" parent="WIyWlLk6GJQsqaUBKTNV-1" source="3XEaH6fvo4PT5U0Qq_-e-13" target="3XEaH6fvo4PT5U0Qq_-e-62">
          <mxGeometry relative="1" as="geometry" />
        </mxCell>
        <mxCell id="3XEaH6fvo4PT5U0Qq_-e-106" value="" style="group" vertex="1" connectable="0" parent="WIyWlLk6GJQsqaUBKTNV-1">
          <mxGeometry x="529" y="461" width="480" height="1095" as="geometry" />
        </mxCell>
        <mxCell id="3XEaH6fvo4PT5U0Qq_-e-62" value="start tf scope" style="rounded=1;whiteSpace=wrap;html=1;fontSize=12;glass=0;strokeWidth=1;shadow=0;" vertex="1" parent="3XEaH6fvo4PT5U0Qq_-e-106">
          <mxGeometry x="80" width="120" height="40" as="geometry" />
        </mxCell>
        <mxCell id="3XEaH6fvo4PT5U0Qq_-e-64" value="get image as tensor" style="rounded=1;whiteSpace=wrap;html=1;fontSize=12;glass=0;strokeWidth=1;shadow=0;" vertex="1" parent="3XEaH6fvo4PT5U0Qq_-e-106">
          <mxGeometry x="80" y="80" width="120" height="40" as="geometry" />
        </mxCell>
        <mxCell id="3XEaH6fvo4PT5U0Qq_-e-61" style="edgeStyle=orthogonalEdgeStyle;rounded=0;orthogonalLoop=1;jettySize=auto;html=1;entryX=0.5;entryY=0;entryDx=0;entryDy=0;" edge="1" source="3XEaH6fvo4PT5U0Qq_-e-62" target="3XEaH6fvo4PT5U0Qq_-e-64" parent="3XEaH6fvo4PT5U0Qq_-e-106">
          <mxGeometry relative="1" as="geometry" />
        </mxCell>
        <mxCell id="3XEaH6fvo4PT5U0Qq_-e-66" value="pass image to hand pose detection model" style="rounded=1;whiteSpace=wrap;html=1;fontSize=12;glass=0;strokeWidth=1;shadow=0;" vertex="1" parent="3XEaH6fvo4PT5U0Qq_-e-106">
          <mxGeometry x="70" y="305" width="140" height="50" as="geometry" />
        </mxCell>
        <mxCell id="3XEaH6fvo4PT5U0Qq_-e-75" style="edgeStyle=orthogonalEdgeStyle;rounded=0;orthogonalLoop=1;jettySize=auto;html=1;" edge="1" parent="3XEaH6fvo4PT5U0Qq_-e-106" source="3XEaH6fvo4PT5U0Qq_-e-69" target="3XEaH6fvo4PT5U0Qq_-e-66">
          <mxGeometry relative="1" as="geometry" />
        </mxCell>
        <mxCell id="3XEaH6fvo4PT5U0Qq_-e-76" value="true" style="edgeLabel;html=1;align=center;verticalAlign=middle;resizable=0;points=[];" vertex="1" connectable="0" parent="3XEaH6fvo4PT5U0Qq_-e-75">
          <mxGeometry x="-0.3754" y="1" relative="1" as="geometry">
            <mxPoint as="offset" />
          </mxGeometry>
        </mxCell>
        <mxCell id="3XEaH6fvo4PT5U0Qq_-e-69" value="if frame number &lt;br&gt;is divisible by 3" style="shape=rhombus;html=1;dashed=0;whitespace=wrap;perimeter=rhombusPerimeter;" vertex="1" parent="3XEaH6fvo4PT5U0Qq_-e-106">
          <mxGeometry x="70" y="170" width="140" height="90" as="geometry" />
        </mxCell>
        <mxCell id="3XEaH6fvo4PT5U0Qq_-e-71" style="edgeStyle=orthogonalEdgeStyle;rounded=0;orthogonalLoop=1;jettySize=auto;html=1;" edge="1" parent="3XEaH6fvo4PT5U0Qq_-e-106" source="3XEaH6fvo4PT5U0Qq_-e-64" target="3XEaH6fvo4PT5U0Qq_-e-69">
          <mxGeometry relative="1" as="geometry" />
        </mxCell>
        <mxCell id="3XEaH6fvo4PT5U0Qq_-e-70" value="return" style="rounded=1;whiteSpace=wrap;html=1;dashed=1;" vertex="1" parent="3XEaH6fvo4PT5U0Qq_-e-106">
          <mxGeometry x="360" y="185" width="120" height="60" as="geometry" />
        </mxCell>
        <mxCell id="3XEaH6fvo4PT5U0Qq_-e-68" style="edgeStyle=orthogonalEdgeStyle;rounded=0;orthogonalLoop=1;jettySize=auto;html=1;entryX=0;entryY=0.5;entryDx=0;entryDy=0;" edge="1" source="3XEaH6fvo4PT5U0Qq_-e-69" target="3XEaH6fvo4PT5U0Qq_-e-70" parent="3XEaH6fvo4PT5U0Qq_-e-106">
          <mxGeometry relative="1" as="geometry" />
        </mxCell>
        <mxCell id="3XEaH6fvo4PT5U0Qq_-e-74" value="false" style="edgeLabel;html=1;align=center;verticalAlign=middle;resizable=0;points=[];" vertex="1" connectable="0" parent="3XEaH6fvo4PT5U0Qq_-e-68">
          <mxGeometry x="-0.2722" y="2" relative="1" as="geometry">
            <mxPoint as="offset" />
          </mxGeometry>
        </mxCell>
        <mxCell id="3XEaH6fvo4PT5U0Qq_-e-81" value="if&lt;br&gt;frame has a hand and&lt;br&gt;confidence is &amp;gt; 85% and&lt;br&gt;checkThumb returns true" style="shape=rhombus;html=1;dashed=0;whitespace=wrap;perimeter=rhombusPerimeter;verticalAlign=top;" vertex="1" parent="3XEaH6fvo4PT5U0Qq_-e-106">
          <mxGeometry y="395" width="280" height="90" as="geometry" />
        </mxCell>
        <mxCell id="3XEaH6fvo4PT5U0Qq_-e-65" style="edgeStyle=orthogonalEdgeStyle;rounded=0;orthogonalLoop=1;jettySize=auto;html=1;" edge="1" source="3XEaH6fvo4PT5U0Qq_-e-66" target="3XEaH6fvo4PT5U0Qq_-e-81" parent="3XEaH6fvo4PT5U0Qq_-e-106">
          <mxGeometry relative="1" as="geometry">
            <mxPoint x="140" y="385" as="targetPoint" />
          </mxGeometry>
        </mxCell>
        <mxCell id="3XEaH6fvo4PT5U0Qq_-e-82" value="return" style="rounded=1;whiteSpace=wrap;html=1;dashed=1;" vertex="1" parent="3XEaH6fvo4PT5U0Qq_-e-106">
          <mxGeometry x="360" y="410" width="120" height="60" as="geometry" />
        </mxCell>
        <mxCell id="3XEaH6fvo4PT5U0Qq_-e-77" style="edgeStyle=orthogonalEdgeStyle;rounded=0;orthogonalLoop=1;jettySize=auto;html=1;entryX=0;entryY=0.5;entryDx=0;entryDy=0;" edge="1" source="3XEaH6fvo4PT5U0Qq_-e-81" target="3XEaH6fvo4PT5U0Qq_-e-82" parent="3XEaH6fvo4PT5U0Qq_-e-106">
          <mxGeometry relative="1" as="geometry" />
        </mxCell>
        <mxCell id="3XEaH6fvo4PT5U0Qq_-e-78" value="false" style="edgeLabel;html=1;align=center;verticalAlign=middle;resizable=0;points=[];" vertex="1" connectable="0" parent="3XEaH6fvo4PT5U0Qq_-e-77">
          <mxGeometry x="-0.2722" y="2" relative="1" as="geometry">
            <mxPoint as="offset" />
          </mxGeometry>
        </mxCell>
        <mxCell id="3XEaH6fvo4PT5U0Qq_-e-83" value="process tensor" style="rounded=1;whiteSpace=wrap;html=1;fontSize=12;glass=0;strokeWidth=1;shadow=0;" vertex="1" parent="3XEaH6fvo4PT5U0Qq_-e-106">
          <mxGeometry x="80" y="535" width="120" height="40" as="geometry" />
        </mxCell>
        <mxCell id="3XEaH6fvo4PT5U0Qq_-e-79" style="edgeStyle=orthogonalEdgeStyle;rounded=0;orthogonalLoop=1;jettySize=auto;html=1;entryX=0.5;entryY=0;entryDx=0;entryDy=0;" edge="1" source="3XEaH6fvo4PT5U0Qq_-e-81" parent="3XEaH6fvo4PT5U0Qq_-e-106" target="3XEaH6fvo4PT5U0Qq_-e-83">
          <mxGeometry relative="1" as="geometry">
            <mxPoint x="140" y="525" as="targetPoint" />
          </mxGeometry>
        </mxCell>
        <mxCell id="3XEaH6fvo4PT5U0Qq_-e-80" value="true" style="edgeLabel;html=1;align=center;verticalAlign=middle;resizable=0;points=[];" vertex="1" connectable="0" parent="3XEaH6fvo4PT5U0Qq_-e-79">
          <mxGeometry x="-0.3754" y="1" relative="1" as="geometry">
            <mxPoint as="offset" />
          </mxGeometry>
        </mxCell>
        <mxCell id="3XEaH6fvo4PT5U0Qq_-e-84" value="end tf scope" style="rounded=1;whiteSpace=wrap;html=1;fontSize=12;glass=0;strokeWidth=1;shadow=0;" vertex="1" parent="3XEaH6fvo4PT5U0Qq_-e-106">
          <mxGeometry x="80" y="975" width="120" height="40" as="geometry" />
        </mxCell>
        <mxCell id="3XEaH6fvo4PT5U0Qq_-e-85" value="call gestureDetected function" style="rounded=1;whiteSpace=wrap;html=1;fontSize=12;glass=0;strokeWidth=1;shadow=0;" vertex="1" parent="3XEaH6fvo4PT5U0Qq_-e-106">
          <mxGeometry x="80" y="1055" width="120" height="40" as="geometry" />
        </mxCell>
        <mxCell id="3XEaH6fvo4PT5U0Qq_-e-104" style="edgeStyle=orthogonalEdgeStyle;rounded=0;orthogonalLoop=1;jettySize=auto;html=1;" edge="1" parent="3XEaH6fvo4PT5U0Qq_-e-106" source="3XEaH6fvo4PT5U0Qq_-e-84" target="3XEaH6fvo4PT5U0Qq_-e-85">
          <mxGeometry relative="1" as="geometry" />
        </mxCell>
        <mxCell id="3XEaH6fvo4PT5U0Qq_-e-103" style="edgeStyle=orthogonalEdgeStyle;rounded=0;orthogonalLoop=1;jettySize=auto;html=1;" edge="1" parent="3XEaH6fvo4PT5U0Qq_-e-106" source="3XEaH6fvo4PT5U0Qq_-e-86" target="3XEaH6fvo4PT5U0Qq_-e-84">
          <mxGeometry relative="1" as="geometry" />
        </mxCell>
        <mxCell id="3XEaH6fvo4PT5U0Qq_-e-86" value="dispose all tensors" style="rounded=1;whiteSpace=wrap;html=1;fontSize=12;glass=0;strokeWidth=1;shadow=0;" vertex="1" parent="3XEaH6fvo4PT5U0Qq_-e-106">
          <mxGeometry x="80" y="885" width="120" height="40" as="geometry" />
        </mxCell>
        <mxCell id="3XEaH6fvo4PT5U0Qq_-e-87" value="pass tensor to gesture detection model" style="rounded=1;whiteSpace=wrap;html=1;fontSize=12;glass=0;strokeWidth=1;shadow=0;" vertex="1" parent="3XEaH6fvo4PT5U0Qq_-e-106">
          <mxGeometry x="80" y="624" width="120" height="61" as="geometry" />
        </mxCell>
        <mxCell id="3XEaH6fvo4PT5U0Qq_-e-89" style="edgeStyle=orthogonalEdgeStyle;rounded=0;orthogonalLoop=1;jettySize=auto;html=1;" edge="1" parent="3XEaH6fvo4PT5U0Qq_-e-106" source="3XEaH6fvo4PT5U0Qq_-e-83" target="3XEaH6fvo4PT5U0Qq_-e-87">
          <mxGeometry relative="1" as="geometry" />
        </mxCell>
        <mxCell id="3XEaH6fvo4PT5U0Qq_-e-98" style="edgeStyle=orthogonalEdgeStyle;rounded=0;orthogonalLoop=1;jettySize=auto;html=1;entryX=0.5;entryY=0;entryDx=0;entryDy=0;" edge="1" source="3XEaH6fvo4PT5U0Qq_-e-100" parent="3XEaH6fvo4PT5U0Qq_-e-106" target="3XEaH6fvo4PT5U0Qq_-e-86">
          <mxGeometry relative="1" as="geometry">
            <mxPoint x="140" y="875" as="targetPoint" />
          </mxGeometry>
        </mxCell>
        <mxCell id="3XEaH6fvo4PT5U0Qq_-e-99" value="true" style="edgeLabel;html=1;align=center;verticalAlign=middle;resizable=0;points=[];" vertex="1" connectable="0" parent="3XEaH6fvo4PT5U0Qq_-e-98">
          <mxGeometry x="-0.3754" y="1" relative="1" as="geometry">
            <mxPoint as="offset" />
          </mxGeometry>
        </mxCell>
        <mxCell id="3XEaH6fvo4PT5U0Qq_-e-100" value="if gesture is detected&lt;br&gt;with confidence &amp;gt; 50%" style="shape=rhombus;html=1;dashed=0;whitespace=wrap;perimeter=rhombusPerimeter;verticalAlign=middle;" vertex="1" parent="3XEaH6fvo4PT5U0Qq_-e-106">
          <mxGeometry x="55" y="728" width="170" height="100" as="geometry" />
        </mxCell>
        <mxCell id="3XEaH6fvo4PT5U0Qq_-e-102" style="edgeStyle=orthogonalEdgeStyle;rounded=0;orthogonalLoop=1;jettySize=auto;html=1;entryX=0.5;entryY=0;entryDx=0;entryDy=0;" edge="1" parent="3XEaH6fvo4PT5U0Qq_-e-106" source="3XEaH6fvo4PT5U0Qq_-e-87" target="3XEaH6fvo4PT5U0Qq_-e-100">
          <mxGeometry relative="1" as="geometry" />
        </mxCell>
        <mxCell id="3XEaH6fvo4PT5U0Qq_-e-101" value="return" style="rounded=1;whiteSpace=wrap;html=1;dashed=1;" vertex="1" parent="3XEaH6fvo4PT5U0Qq_-e-106">
          <mxGeometry x="290" y="748" width="120" height="60" as="geometry" />
        </mxCell>
        <mxCell id="3XEaH6fvo4PT5U0Qq_-e-96" style="edgeStyle=orthogonalEdgeStyle;rounded=0;orthogonalLoop=1;jettySize=auto;html=1;entryX=0;entryY=0.5;entryDx=0;entryDy=0;" edge="1" source="3XEaH6fvo4PT5U0Qq_-e-100" target="3XEaH6fvo4PT5U0Qq_-e-101" parent="3XEaH6fvo4PT5U0Qq_-e-106">
          <mxGeometry relative="1" as="geometry" />
        </mxCell>
        <mxCell id="3XEaH6fvo4PT5U0Qq_-e-97" value="false" style="edgeLabel;html=1;align=center;verticalAlign=middle;resizable=0;points=[];" vertex="1" connectable="0" parent="3XEaH6fvo4PT5U0Qq_-e-96">
          <mxGeometry x="-0.2722" y="2" relative="1" as="geometry">
            <mxPoint as="offset" />
          </mxGeometry>
        </mxCell>
        <mxCell id="3XEaH6fvo4PT5U0Qq_-e-107" value="" style="group" vertex="1" connectable="0" parent="WIyWlLk6GJQsqaUBKTNV-1">
          <mxGeometry x="1089" y="461" width="330" height="430" as="geometry" />
        </mxCell>
        <mxCell id="3XEaH6fvo4PT5U0Qq_-e-41" value="get finger curl data" style="rounded=1;whiteSpace=wrap;html=1;fontSize=12;glass=0;strokeWidth=1;shadow=0;" vertex="1" parent="3XEaH6fvo4PT5U0Qq_-e-107">
          <mxGeometry x="10" width="120" height="40" as="geometry" />
        </mxCell>
        <mxCell id="3XEaH6fvo4PT5U0Qq_-e-49" value="if thumb has no curl" style="shape=rhombus;html=1;dashed=0;whitespace=wrap;perimeter=rhombusPerimeter;" vertex="1" parent="3XEaH6fvo4PT5U0Qq_-e-107">
          <mxGeometry y="80" width="140" height="90" as="geometry" />
        </mxCell>
        <mxCell id="3XEaH6fvo4PT5U0Qq_-e-60" style="edgeStyle=orthogonalEdgeStyle;rounded=0;orthogonalLoop=1;jettySize=auto;html=1;" edge="1" parent="3XEaH6fvo4PT5U0Qq_-e-107" source="3XEaH6fvo4PT5U0Qq_-e-41" target="3XEaH6fvo4PT5U0Qq_-e-49">
          <mxGeometry relative="1" as="geometry" />
        </mxCell>
        <mxCell id="3XEaH6fvo4PT5U0Qq_-e-50" value="&lt;br&gt;if thumb is either &lt;br&gt;pointing up or &lt;br&gt;down" style="shape=rhombus;html=1;dashed=0;whitespace=wrap;perimeter=rhombusPerimeter;" vertex="1" parent="3XEaH6fvo4PT5U0Qq_-e-107">
          <mxGeometry y="215" width="140" height="110" as="geometry" />
        </mxCell>
        <mxCell id="3XEaH6fvo4PT5U0Qq_-e-58" value="true" style="edgeStyle=orthogonalEdgeStyle;rounded=0;orthogonalLoop=1;jettySize=auto;html=1;" edge="1" parent="3XEaH6fvo4PT5U0Qq_-e-107" source="3XEaH6fvo4PT5U0Qq_-e-49" target="3XEaH6fvo4PT5U0Qq_-e-50">
          <mxGeometry relative="1" as="geometry" />
        </mxCell>
        <mxCell id="3XEaH6fvo4PT5U0Qq_-e-51" value="return true" style="rounded=1;whiteSpace=wrap;html=1;dashed=1;" vertex="1" parent="3XEaH6fvo4PT5U0Qq_-e-107">
          <mxGeometry x="10" y="370" width="120" height="60" as="geometry" />
        </mxCell>
        <mxCell id="3XEaH6fvo4PT5U0Qq_-e-59" value="true" style="edgeStyle=orthogonalEdgeStyle;rounded=0;orthogonalLoop=1;jettySize=auto;html=1;" edge="1" parent="3XEaH6fvo4PT5U0Qq_-e-107" source="3XEaH6fvo4PT5U0Qq_-e-50" target="3XEaH6fvo4PT5U0Qq_-e-51">
          <mxGeometry relative="1" as="geometry" />
        </mxCell>
        <mxCell id="3XEaH6fvo4PT5U0Qq_-e-52" value="return false" style="rounded=1;whiteSpace=wrap;html=1;dashed=1;" vertex="1" parent="3XEaH6fvo4PT5U0Qq_-e-107">
          <mxGeometry x="210" y="240" width="120" height="60" as="geometry" />
        </mxCell>
        <mxCell id="3XEaH6fvo4PT5U0Qq_-e-57" style="edgeStyle=orthogonalEdgeStyle;rounded=0;orthogonalLoop=1;jettySize=auto;html=1;" edge="1" parent="3XEaH6fvo4PT5U0Qq_-e-107" source="3XEaH6fvo4PT5U0Qq_-e-50" target="3XEaH6fvo4PT5U0Qq_-e-52">
          <mxGeometry relative="1" as="geometry" />
        </mxCell>
        <mxCell id="3XEaH6fvo4PT5U0Qq_-e-73" value="false" style="edgeLabel;html=1;align=center;verticalAlign=middle;resizable=0;points=[];" vertex="1" connectable="0" parent="3XEaH6fvo4PT5U0Qq_-e-57">
          <mxGeometry x="0.0286" y="1" relative="1" as="geometry">
            <mxPoint as="offset" />
          </mxGeometry>
        </mxCell>
        <mxCell id="3XEaH6fvo4PT5U0Qq_-e-54" value="return false" style="rounded=1;whiteSpace=wrap;html=1;dashed=1;" vertex="1" parent="3XEaH6fvo4PT5U0Qq_-e-107">
          <mxGeometry x="210" y="95" width="120" height="60" as="geometry" />
        </mxCell>
        <mxCell id="3XEaH6fvo4PT5U0Qq_-e-56" style="edgeStyle=orthogonalEdgeStyle;rounded=0;orthogonalLoop=1;jettySize=auto;html=1;entryX=0;entryY=0.5;entryDx=0;entryDy=0;" edge="1" parent="3XEaH6fvo4PT5U0Qq_-e-107" source="3XEaH6fvo4PT5U0Qq_-e-49" target="3XEaH6fvo4PT5U0Qq_-e-54">
          <mxGeometry relative="1" as="geometry" />
        </mxCell>
        <mxCell id="3XEaH6fvo4PT5U0Qq_-e-72" value="false" style="edgeLabel;html=1;align=center;verticalAlign=middle;resizable=0;points=[];" vertex="1" connectable="0" parent="3XEaH6fvo4PT5U0Qq_-e-56">
          <mxGeometry x="-0.1218" y="3" relative="1" as="geometry">
            <mxPoint as="offset" />
          </mxGeometry>
        </mxCell>
        <mxCell id="3XEaH6fvo4PT5U0Qq_-e-108" value="" style="group" vertex="1" connectable="0" parent="WIyWlLk6GJQsqaUBKTNV-1">
          <mxGeometry x="1509" y="461" width="120" height="280" as="geometry" />
        </mxCell>
        <mxCell id="3XEaH6fvo4PT5U0Qq_-e-32" value="initiate tensorflow" style="rounded=1;whiteSpace=wrap;html=1;fontSize=12;glass=0;strokeWidth=1;shadow=0;" vertex="1" parent="3XEaH6fvo4PT5U0Qq_-e-108">
          <mxGeometry width="120" height="40" as="geometry" />
        </mxCell>
        <mxCell id="3XEaH6fvo4PT5U0Qq_-e-34" value="load hand pose detection model" style="rounded=1;whiteSpace=wrap;html=1;fontSize=12;glass=0;strokeWidth=1;shadow=0;" vertex="1" parent="3XEaH6fvo4PT5U0Qq_-e-108">
          <mxGeometry y="80" width="120" height="40" as="geometry" />
        </mxCell>
        <mxCell id="3XEaH6fvo4PT5U0Qq_-e-31" style="edgeStyle=orthogonalEdgeStyle;rounded=0;orthogonalLoop=1;jettySize=auto;html=1;entryX=0.5;entryY=0;entryDx=0;entryDy=0;" edge="1" source="3XEaH6fvo4PT5U0Qq_-e-32" target="3XEaH6fvo4PT5U0Qq_-e-34" parent="3XEaH6fvo4PT5U0Qq_-e-108">
          <mxGeometry relative="1" as="geometry" />
        </mxCell>
        <mxCell id="3XEaH6fvo4PT5U0Qq_-e-36" value="load custom gesture detection model" style="rounded=1;whiteSpace=wrap;html=1;fontSize=12;glass=0;strokeWidth=1;shadow=0;" vertex="1" parent="3XEaH6fvo4PT5U0Qq_-e-108">
          <mxGeometry y="160" width="120" height="40" as="geometry" />
        </mxCell>
        <mxCell id="3XEaH6fvo4PT5U0Qq_-e-33" style="edgeStyle=orthogonalEdgeStyle;rounded=0;orthogonalLoop=1;jettySize=auto;html=1;entryX=0.5;entryY=0;entryDx=0;entryDy=0;" edge="1" source="3XEaH6fvo4PT5U0Qq_-e-34" target="3XEaH6fvo4PT5U0Qq_-e-36" parent="3XEaH6fvo4PT5U0Qq_-e-108">
          <mxGeometry relative="1" as="geometry" />
        </mxCell>
        <mxCell id="3XEaH6fvo4PT5U0Qq_-e-37" value="prompt model loaded" style="rounded=1;whiteSpace=wrap;html=1;fontSize=12;glass=0;strokeWidth=1;shadow=0;" vertex="1" parent="3XEaH6fvo4PT5U0Qq_-e-108">
          <mxGeometry y="240" width="120" height="40" as="geometry" />
        </mxCell>
        <mxCell id="3XEaH6fvo4PT5U0Qq_-e-35" style="edgeStyle=orthogonalEdgeStyle;rounded=0;orthogonalLoop=1;jettySize=auto;html=1;" edge="1" source="3XEaH6fvo4PT5U0Qq_-e-36" target="3XEaH6fvo4PT5U0Qq_-e-37" parent="3XEaH6fvo4PT5U0Qq_-e-108">
          <mxGeometry relative="1" as="geometry" />
        </mxCell>
        <mxCell id="3XEaH6fvo4PT5U0Qq_-e-109" value="" style="group" vertex="1" connectable="0" parent="WIyWlLk6GJQsqaUBKTNV-1">
          <mxGeometry x="-802" y="240" width="150" height="360" as="geometry" />
        </mxCell>
        <mxCell id="WIyWlLk6GJQsqaUBKTNV-3" value="Unlock all orientations" style="rounded=1;whiteSpace=wrap;html=1;fontSize=12;glass=0;strokeWidth=1;shadow=0;" parent="3XEaH6fvo4PT5U0Qq_-e-109" vertex="1">
          <mxGeometry width="150" height="40" as="geometry" />
        </mxCell>
        <mxCell id="WIyWlLk6GJQsqaUBKTNV-11" value="set loading to true" style="rounded=1;whiteSpace=wrap;html=1;fontSize=12;glass=0;strokeWidth=1;shadow=0;" parent="3XEaH6fvo4PT5U0Qq_-e-109" vertex="1">
          <mxGeometry x="15" y="80" width="120" height="40" as="geometry" />
        </mxCell>
        <mxCell id="3XEaH6fvo4PT5U0Qq_-e-26" style="edgeStyle=orthogonalEdgeStyle;rounded=0;orthogonalLoop=1;jettySize=auto;html=1;" edge="1" parent="3XEaH6fvo4PT5U0Qq_-e-109" source="WIyWlLk6GJQsqaUBKTNV-3" target="WIyWlLk6GJQsqaUBKTNV-11">
          <mxGeometry relative="1" as="geometry" />
        </mxCell>
        <mxCell id="3XEaH6fvo4PT5U0Qq_-e-22" value="get questions" style="rounded=1;whiteSpace=wrap;html=1;fontSize=12;glass=0;strokeWidth=1;shadow=0;" vertex="1" parent="3XEaH6fvo4PT5U0Qq_-e-109">
          <mxGeometry x="15" y="160" width="120" height="40" as="geometry" />
        </mxCell>
        <mxCell id="3XEaH6fvo4PT5U0Qq_-e-25" style="edgeStyle=orthogonalEdgeStyle;rounded=0;orthogonalLoop=1;jettySize=auto;html=1;entryX=0.5;entryY=0;entryDx=0;entryDy=0;" edge="1" parent="3XEaH6fvo4PT5U0Qq_-e-109" source="WIyWlLk6GJQsqaUBKTNV-11" target="3XEaH6fvo4PT5U0Qq_-e-22">
          <mxGeometry relative="1" as="geometry" />
        </mxCell>
        <mxCell id="3XEaH6fvo4PT5U0Qq_-e-23" value="set loading to false" style="rounded=1;whiteSpace=wrap;html=1;fontSize=12;glass=0;strokeWidth=1;shadow=0;" vertex="1" parent="3XEaH6fvo4PT5U0Qq_-e-109">
          <mxGeometry x="15" y="240" width="120" height="40" as="geometry" />
        </mxCell>
        <mxCell id="3XEaH6fvo4PT5U0Qq_-e-27" style="edgeStyle=orthogonalEdgeStyle;rounded=0;orthogonalLoop=1;jettySize=auto;html=1;entryX=0.5;entryY=0;entryDx=0;entryDy=0;" edge="1" parent="3XEaH6fvo4PT5U0Qq_-e-109" source="3XEaH6fvo4PT5U0Qq_-e-22" target="3XEaH6fvo4PT5U0Qq_-e-23">
          <mxGeometry relative="1" as="geometry" />
        </mxCell>
        <mxCell id="3XEaH6fvo4PT5U0Qq_-e-24" value="save questions in questions array" style="rounded=1;whiteSpace=wrap;html=1;fontSize=12;glass=0;strokeWidth=1;shadow=0;" vertex="1" parent="3XEaH6fvo4PT5U0Qq_-e-109">
          <mxGeometry x="15" y="320" width="120" height="40" as="geometry" />
        </mxCell>
        <mxCell id="3XEaH6fvo4PT5U0Qq_-e-28" style="edgeStyle=orthogonalEdgeStyle;rounded=0;orthogonalLoop=1;jettySize=auto;html=1;" edge="1" parent="3XEaH6fvo4PT5U0Qq_-e-109" source="3XEaH6fvo4PT5U0Qq_-e-23" target="3XEaH6fvo4PT5U0Qq_-e-24">
          <mxGeometry relative="1" as="geometry" />
        </mxCell>
        <mxCell id="3XEaH6fvo4PT5U0Qq_-e-187" value="" style="group" vertex="1" connectable="0" parent="WIyWlLk6GJQsqaUBKTNV-1">
          <mxGeometry x="-580" y="240" width="366" height="810" as="geometry" />
        </mxCell>
        <mxCell id="3XEaH6fvo4PT5U0Qq_-e-126" value="Check detected gesture" style="rounded=1;whiteSpace=wrap;html=1;fontSize=12;glass=0;strokeWidth=1;shadow=0;" vertex="1" parent="3XEaH6fvo4PT5U0Qq_-e-187">
          <mxGeometry x="100" width="150" height="40" as="geometry" />
        </mxCell>
        <mxCell id="3XEaH6fvo4PT5U0Qq_-e-127" value="undo animation" style="rounded=1;whiteSpace=wrap;html=1;fontSize=12;glass=0;strokeWidth=1;shadow=0;" vertex="1" parent="3XEaH6fvo4PT5U0Qq_-e-187">
          <mxGeometry x="115" y="160" width="120" height="40" as="geometry" />
        </mxCell>
        <mxCell id="3XEaH6fvo4PT5U0Qq_-e-129" value="push detected gesture in answers" style="rounded=1;whiteSpace=wrap;html=1;fontSize=12;glass=0;strokeWidth=1;shadow=0;" vertex="1" parent="3XEaH6fvo4PT5U0Qq_-e-187">
          <mxGeometry x="115" y="240" width="120" height="40" as="geometry" />
        </mxCell>
        <mxCell id="3XEaH6fvo4PT5U0Qq_-e-130" style="edgeStyle=orthogonalEdgeStyle;rounded=0;orthogonalLoop=1;jettySize=auto;html=1;entryX=0.5;entryY=0;entryDx=0;entryDy=0;" edge="1" source="3XEaH6fvo4PT5U0Qq_-e-127" target="3XEaH6fvo4PT5U0Qq_-e-129" parent="3XEaH6fvo4PT5U0Qq_-e-187">
          <mxGeometry relative="1" as="geometry" />
        </mxCell>
        <mxCell id="3XEaH6fvo4PT5U0Qq_-e-132" style="edgeStyle=orthogonalEdgeStyle;rounded=0;orthogonalLoop=1;jettySize=auto;html=1;" edge="1" source="3XEaH6fvo4PT5U0Qq_-e-129" target="3XEaH6fvo4PT5U0Qq_-e-140" parent="3XEaH6fvo4PT5U0Qq_-e-187">
          <mxGeometry relative="1" as="geometry">
            <mxPoint x="175" y="320" as="targetPoint" />
          </mxGeometry>
        </mxCell>
        <mxCell id="3XEaH6fvo4PT5U0Qq_-e-140" value="if current question&lt;br&gt;is not last question" style="shape=rhombus;html=1;dashed=0;whitespace=wrap;perimeter=rhombusPerimeter;" vertex="1" parent="3XEaH6fvo4PT5U0Qq_-e-187">
          <mxGeometry x="105" y="320" width="140" height="90" as="geometry" />
        </mxCell>
        <mxCell id="3XEaH6fvo4PT5U0Qq_-e-141" style="edgeStyle=orthogonalEdgeStyle;rounded=0;orthogonalLoop=1;jettySize=auto;html=1;entryX=0.5;entryY=0;entryDx=0;entryDy=0;" edge="1" parent="3XEaH6fvo4PT5U0Qq_-e-187" source="3XEaH6fvo4PT5U0Qq_-e-140" target="3XEaH6fvo4PT5U0Qq_-e-149">
          <mxGeometry relative="1" as="geometry">
            <mxPoint x="400" y="365.0000000000002" as="targetPoint" />
          </mxGeometry>
        </mxCell>
        <mxCell id="3XEaH6fvo4PT5U0Qq_-e-142" value="false" style="edgeLabel;html=1;align=center;verticalAlign=middle;resizable=0;points=[];" vertex="1" connectable="0" parent="3XEaH6fvo4PT5U0Qq_-e-141">
          <mxGeometry x="-0.2722" y="2" relative="1" as="geometry">
            <mxPoint as="offset" />
          </mxGeometry>
        </mxCell>
        <mxCell id="3XEaH6fvo4PT5U0Qq_-e-144" value="scroll to next &lt;br&gt;question" style="rounded=1;whiteSpace=wrap;html=1;fontSize=12;glass=0;strokeWidth=1;shadow=0;" vertex="1" parent="3XEaH6fvo4PT5U0Qq_-e-187">
          <mxGeometry y="450" width="120" height="40" as="geometry" />
        </mxCell>
        <mxCell id="3XEaH6fvo4PT5U0Qq_-e-138" style="edgeStyle=orthogonalEdgeStyle;rounded=0;orthogonalLoop=1;jettySize=auto;html=1;" edge="1" parent="3XEaH6fvo4PT5U0Qq_-e-187" source="3XEaH6fvo4PT5U0Qq_-e-140" target="3XEaH6fvo4PT5U0Qq_-e-144">
          <mxGeometry relative="1" as="geometry">
            <mxPoint x="60" y="460" as="targetPoint" />
            <Array as="points">
              <mxPoint x="60" y="365" />
              <mxPoint x="60" y="455" />
              <mxPoint x="55" y="455" />
            </Array>
          </mxGeometry>
        </mxCell>
        <mxCell id="3XEaH6fvo4PT5U0Qq_-e-139" value="true" style="edgeLabel;html=1;align=center;verticalAlign=middle;resizable=0;points=[];" vertex="1" connectable="0" parent="3XEaH6fvo4PT5U0Qq_-e-138">
          <mxGeometry x="-0.3754" y="1" relative="1" as="geometry">
            <mxPoint as="offset" />
          </mxGeometry>
        </mxCell>
        <mxCell id="3XEaH6fvo4PT5U0Qq_-e-145" value="stop gesture detection sound" style="rounded=1;whiteSpace=wrap;html=1;fontSize=12;glass=0;strokeWidth=1;shadow=0;" vertex="1" parent="3XEaH6fvo4PT5U0Qq_-e-187">
          <mxGeometry y="530" width="120" height="40" as="geometry" />
        </mxCell>
        <mxCell id="3XEaH6fvo4PT5U0Qq_-e-146" style="edgeStyle=orthogonalEdgeStyle;rounded=0;orthogonalLoop=1;jettySize=auto;html=1;entryX=0.5;entryY=0;entryDx=0;entryDy=0;" edge="1" source="3XEaH6fvo4PT5U0Qq_-e-144" target="3XEaH6fvo4PT5U0Qq_-e-145" parent="3XEaH6fvo4PT5U0Qq_-e-187">
          <mxGeometry relative="1" as="geometry" />
        </mxCell>
        <mxCell id="3XEaH6fvo4PT5U0Qq_-e-149" value="post answers" style="rounded=1;whiteSpace=wrap;html=1;fontSize=12;glass=0;strokeWidth=1;shadow=0;" vertex="1" parent="3XEaH6fvo4PT5U0Qq_-e-187">
          <mxGeometry x="246" y="450" width="120" height="40" as="geometry" />
        </mxCell>
        <mxCell id="3XEaH6fvo4PT5U0Qq_-e-150" value="scroll to thank you screen" style="rounded=1;whiteSpace=wrap;html=1;fontSize=12;glass=0;strokeWidth=1;shadow=0;" vertex="1" parent="3XEaH6fvo4PT5U0Qq_-e-187">
          <mxGeometry x="246" y="530" width="120" height="40" as="geometry" />
        </mxCell>
        <mxCell id="3XEaH6fvo4PT5U0Qq_-e-151" style="edgeStyle=orthogonalEdgeStyle;rounded=0;orthogonalLoop=1;jettySize=auto;html=1;entryX=0.5;entryY=0;entryDx=0;entryDy=0;" edge="1" source="3XEaH6fvo4PT5U0Qq_-e-149" target="3XEaH6fvo4PT5U0Qq_-e-150" parent="3XEaH6fvo4PT5U0Qq_-e-187">
          <mxGeometry relative="1" as="geometry" />
        </mxCell>
        <mxCell id="3XEaH6fvo4PT5U0Qq_-e-152" value="play thank you &lt;br&gt;sound" style="rounded=1;whiteSpace=wrap;html=1;fontSize=12;glass=0;strokeWidth=1;shadow=0;" vertex="1" parent="3XEaH6fvo4PT5U0Qq_-e-187">
          <mxGeometry x="246" y="610" width="120" height="40" as="geometry" />
        </mxCell>
        <mxCell id="3XEaH6fvo4PT5U0Qq_-e-153" style="edgeStyle=orthogonalEdgeStyle;rounded=0;orthogonalLoop=1;jettySize=auto;html=1;entryX=0.5;entryY=0;entryDx=0;entryDy=0;" edge="1" source="3XEaH6fvo4PT5U0Qq_-e-150" target="3XEaH6fvo4PT5U0Qq_-e-152" parent="3XEaH6fvo4PT5U0Qq_-e-187">
          <mxGeometry relative="1" as="geometry" />
        </mxCell>
        <mxCell id="3XEaH6fvo4PT5U0Qq_-e-154" value="stop thank you&lt;br&gt;sound" style="rounded=1;whiteSpace=wrap;html=1;fontSize=12;glass=0;strokeWidth=1;shadow=0;" vertex="1" parent="3XEaH6fvo4PT5U0Qq_-e-187">
          <mxGeometry x="245" y="690" width="120" height="40" as="geometry" />
        </mxCell>
        <mxCell id="3XEaH6fvo4PT5U0Qq_-e-155" value="" style="edgeStyle=orthogonalEdgeStyle;rounded=0;orthogonalLoop=1;jettySize=auto;html=1;" edge="1" parent="3XEaH6fvo4PT5U0Qq_-e-187" source="3XEaH6fvo4PT5U0Qq_-e-152" target="3XEaH6fvo4PT5U0Qq_-e-154">
          <mxGeometry relative="1" as="geometry" />
        </mxCell>
        <mxCell id="3XEaH6fvo4PT5U0Qq_-e-156" value="scroll to start" style="rounded=1;whiteSpace=wrap;html=1;fontSize=12;glass=0;strokeWidth=1;shadow=0;" vertex="1" parent="3XEaH6fvo4PT5U0Qq_-e-187">
          <mxGeometry x="245" y="770" width="120" height="40" as="geometry" />
        </mxCell>
        <mxCell id="3XEaH6fvo4PT5U0Qq_-e-157" value="" style="edgeStyle=orthogonalEdgeStyle;rounded=0;orthogonalLoop=1;jettySize=auto;html=1;" edge="1" parent="3XEaH6fvo4PT5U0Qq_-e-187" source="3XEaH6fvo4PT5U0Qq_-e-154" target="3XEaH6fvo4PT5U0Qq_-e-156">
          <mxGeometry relative="1" as="geometry" />
        </mxCell>
        <mxCell id="3XEaH6fvo4PT5U0Qq_-e-161" value="" style="edgeStyle=orthogonalEdgeStyle;rounded=0;orthogonalLoop=1;jettySize=auto;html=1;" edge="1" parent="3XEaH6fvo4PT5U0Qq_-e-187" source="3XEaH6fvo4PT5U0Qq_-e-158" target="3XEaH6fvo4PT5U0Qq_-e-127">
          <mxGeometry relative="1" as="geometry" />
        </mxCell>
        <mxCell id="3XEaH6fvo4PT5U0Qq_-e-158" value="call animateGesture" style="rounded=1;whiteSpace=wrap;html=1;fontSize=12;glass=0;strokeWidth=1;shadow=0;" vertex="1" parent="3XEaH6fvo4PT5U0Qq_-e-187">
          <mxGeometry x="115" y="78" width="120" height="40" as="geometry" />
        </mxCell>
        <mxCell id="3XEaH6fvo4PT5U0Qq_-e-160" value="" style="edgeStyle=orthogonalEdgeStyle;rounded=0;orthogonalLoop=1;jettySize=auto;html=1;" edge="1" parent="3XEaH6fvo4PT5U0Qq_-e-187" source="3XEaH6fvo4PT5U0Qq_-e-126" target="3XEaH6fvo4PT5U0Qq_-e-158">
          <mxGeometry relative="1" as="geometry" />
        </mxCell>
        <mxCell id="3XEaH6fvo4PT5U0Qq_-e-188" value="animate current question&#39;s thumb" style="rounded=1;whiteSpace=wrap;html=1;fontSize=12;glass=0;strokeWidth=1;shadow=0;" vertex="1" parent="WIyWlLk6GJQsqaUBKTNV-1">
          <mxGeometry x="-220" y="240" width="120" height="40" as="geometry" />
        </mxCell>
        <mxCell id="3XEaH6fvo4PT5U0Qq_-e-189" value="play gesture detection sound" style="rounded=1;whiteSpace=wrap;html=1;fontSize=12;glass=0;strokeWidth=1;shadow=0;" vertex="1" parent="WIyWlLk6GJQsqaUBKTNV-1">
          <mxGeometry x="-220" y="320" width="120" height="40" as="geometry" />
        </mxCell>
        <mxCell id="3XEaH6fvo4PT5U0Qq_-e-190" style="edgeStyle=orthogonalEdgeStyle;rounded=0;orthogonalLoop=1;jettySize=auto;html=1;entryX=0.5;entryY=0;entryDx=0;entryDy=0;" edge="1" source="3XEaH6fvo4PT5U0Qq_-e-188" target="3XEaH6fvo4PT5U0Qq_-e-189" parent="WIyWlLk6GJQsqaUBKTNV-1">
          <mxGeometry relative="1" as="geometry" />
        </mxCell>
        <mxCell id="3XEaH6fvo4PT5U0Qq_-e-193" style="edgeStyle=orthogonalEdgeStyle;rounded=0;orthogonalLoop=1;jettySize=auto;html=1;" edge="1" parent="WIyWlLk6GJQsqaUBKTNV-1" source="3XEaH6fvo4PT5U0Qq_-e-110" target="3XEaH6fvo4PT5U0Qq_-e-188">
          <mxGeometry relative="1" as="geometry" />
        </mxCell>
      </root>
    </mxGraphModel>
  </diagram>
</mxfile>
